<svg xmlns="http://www.w3.org/2000/svg" width="1408" height="768" viewBox="0 0 1408 768" version="1.1">
	<path fill-opacity="0.231" d="M 808 139.126 C 789.575 150.693, 774.025 160.360, 773.445 160.610 C 772.865 160.860, 758.240 152.461, 740.945 141.947 C 723.650 131.432, 708.227 122.163, 706.671 121.348 C 703.367 119.618, 706.255 118.084, 662.500 144.823 C 647.650 153.898, 623.575 168.597, 609 177.488 C 573.005 199.446, 565.624 204.102, 564.765 205.395 C 564.361 206.003, 564.024 225.657, 564.015 249.071 L 564 291.642 546.034 302.571 L 528.067 313.500 528.034 323.809 C 528.008 331.805, 528.280 333.946, 529.250 333.351 C 529.938 332.930, 537.876 327.953, 546.891 322.292 C 555.907 316.632, 563.557 312, 563.891 312 C 564.226 312, 564.377 348.225, 564.227 392.500 C 563.972 467.778, 564.064 473, 565.658 473 C 566.595 473, 583.593 463.005, 603.431 450.789 C 623.269 438.573, 643.521 426.201, 648.437 423.296 C 653.352 420.391, 657.738 417.449, 658.185 416.757 C 658.631 416.066, 658.747 406.725, 658.442 396 C 658.137 385.275, 657.763 363, 657.612 346.500 C 657.379 321.124, 657.079 315.903, 655.668 312.628 C 654.249 309.333, 654 304.769, 654 282.009 L 654 255.262 679.013 239.631 C 692.769 231.034, 704.389 224, 704.834 224 C 705.279 224, 716.411 230.465, 729.571 238.366 L 753.500 252.731 753.767 277.251 L 754.034 301.772 746.267 306.576 C 741.995 309.219, 727.127 318.538, 713.227 327.286 L 687.955 343.191 689.858 346.346 C 717.058 391.427, 720.180 397.143, 718.576 398.916 C 717.288 400.340, 717.948 400.977, 724.818 404.943 C 754.106 421.850, 811.297 455.407, 825.222 463.855 C 834.418 469.435, 842.404 474, 842.967 474 C 843.657 474, 844.074 440.069, 844.245 369.861 L 844.500 265.722 862.250 254.708 L 880 243.694 880 233.847 C 880 228.431, 879.723 224, 879.385 224 C 879.046 224, 870.958 228.950, 861.411 235 C 851.864 241.050, 843.928 246, 843.776 246 C 843.624 245.999, 843.500 217.199, 843.500 182 C 843.500 139.968, 843.157 118.017, 842.500 118.049 C 841.950 118.075, 826.425 127.560, 808 139.126 M 704.636 146.286 C 703.886 147.504, 698.460 157.908, 692.579 169.407 C 683.941 186.294, 682.137 190.540, 683.193 191.491 C 683.912 192.138, 688.769 195.281, 693.988 198.474 L 703.475 204.281 706.607 202.390 C 719.718 194.477, 752.963 173.402, 752.970 173 C 752.974 172.725, 742.408 166.104, 729.489 158.286 C 706.253 144.225, 705.985 144.095, 704.636 146.286 M 803.714 162.134 C 795.582 167.154, 789.057 171.380, 789.214 171.526 C 789.371 171.671, 795.928 175.658, 803.785 180.385 C 812.985 185.920, 818.221 188.538, 818.492 187.740 C 819.109 185.927, 819.590 152.997, 819 153.002 C 818.725 153.004, 811.846 157.113, 803.714 162.134 M 667.306 165.203 C 660.050 169.697, 654.303 173.681, 654.535 174.057 C 655.331 175.345, 667.270 182.077, 668.205 181.765 C 669.318 181.394, 682.074 156.993, 681.143 157.016 C 680.789 157.025, 674.563 160.709, 667.306 165.203 M 611.500 199.374 L 585.500 215.553 585.236 246.816 L 584.971 278.079 587.332 276.789 C 588.630 276.080, 600.032 269.002, 612.670 261.060 L 635.648 246.619 648.430 221.749 C 655.460 208.070, 661.052 196.726, 660.856 196.539 C 659.924 195.650, 638.437 183.015, 638 183.099 C 637.725 183.152, 625.800 190.476, 611.500 199.374 M 745 198.592 C 732.075 206.607, 721.173 213.477, 720.774 213.858 C 720.374 214.240, 730.827 221.008, 744.002 228.897 C 757.177 236.787, 768.404 243.782, 768.952 244.443 C 769.500 245.103, 770.073 253.027, 770.224 262.052 L 770.500 278.461 773.621 273.480 C 790.513 246.526, 811.997 210.436, 811.662 209.576 C 811.102 208.136, 771.664 183.997, 769.891 184.010 C 769.126 184.015, 757.925 190.577, 745 198.592 M 667.968 217.064 C 664.619 223.745, 662.073 229.407, 662.312 229.645 C 662.721 230.054, 685.555 215.836, 687.329 214.068 C 687.972 213.427, 681.179 208.680, 674.778 205.298 C 674.382 205.089, 671.317 210.383, 667.968 217.064 M 817.576 231.229 C 814.869 235.778, 807.071 248.653, 800.249 259.839 C 793.427 271.026, 787.993 280.311, 788.173 280.473 C 788.481 280.750, 817.434 262.704, 821.288 259.832 C 822.909 258.625, 823.050 256.835, 822.788 240.729 L 822.500 222.958 817.576 231.229 M 606.759 284.823 L 585.018 298.500 585.088 350.500 C 585.126 379.100, 585.417 401.825, 585.735 401 C 588.685 393.326, 628.977 272.449, 628.772 271.888 C 628.622 271.480, 618.717 277.301, 606.759 284.823 M 785.661 302.408 C 765.949 314.712, 749.435 325.166, 748.962 325.639 C 748.482 326.120, 754.993 335.998, 763.700 348 C 772.280 359.825, 788.733 382.550, 800.264 398.500 C 811.795 414.450, 821.627 427.928, 822.114 428.450 C 822.629 429.002, 823 398.109, 823 354.700 C 823 313.615, 822.663 280.009, 822.250 280.019 C 821.837 280.029, 805.372 290.105, 785.661 302.408 M 614.629 364.538 C 602.050 402.242, 591.925 433.247, 592.129 433.438 C 592.521 433.804, 635.612 407.788, 637.132 406.268 C 637.631 405.769, 637.904 381.489, 637.759 350.684 L 637.500 295.985 614.629 364.538 M 722.162 340.987 C 715.926 344.757, 710.582 348.085, 710.285 348.381 C 709.989 348.678, 713.790 355.801, 718.733 364.210 C 723.675 372.620, 728.490 380.853, 729.432 382.507 C 730.677 384.694, 735.966 388.280, 748.822 395.655 C 758.545 401.233, 773.638 409.916, 782.363 414.952 C 791.088 419.987, 798.385 423.948, 798.580 423.753 C 798.775 423.559, 795.056 418.022, 790.318 411.450 C 753.275 360.076, 734.168 333.945, 733.735 334.066 C 733.606 334.102, 728.398 337.216, 722.162 340.987" stroke="none" fill="black" fill-rule="evenodd"/>
	<path fill-opacity="0.266" d="M 809.454 138.588 C 763.880 167.090, 768.607 164.560, 765.271 162.235 C 763.184 160.780, 708.936 127.680, 704.746 125.305 C 704.331 125.069, 698.931 127.910, 692.746 131.617 C 686.561 135.324, 680.375 139.005, 679 139.797 L 676.500 141.237 679 139.141 C 680.375 137.988, 681.913 137.034, 682.417 137.022 C 682.921 137.010, 683.032 136.699, 682.664 136.331 C 682.297 135.963, 682.784 134.773, 683.748 133.686 C 685.460 131.754, 685.443 131.739, 683 133.023 C 680.624 134.273, 590.390 189.150, 573.500 199.617 L 565.500 204.576 565 248.025 L 564.500 291.474 546.500 302.594 L 528.500 313.713 528.214 323.357 C 528.056 328.660, 528.261 333, 528.669 333 C 529.417 333, 542.033 325.282, 554 317.503 C 557.575 315.179, 561.513 312.749, 562.750 312.103 L 565 310.930 565.191 359.715 C 565.297 386.547, 565.661 404.225, 566 399 C 566.339 393.775, 566.774 390.400, 566.966 391.500 C 567.157 392.600, 567.623 391.250, 568 388.500 C 568.377 385.750, 568.756 402.063, 568.843 424.750 C 568.929 447.438, 569.191 466, 569.425 466 C 569.659 466, 579.903 459.813, 592.189 452.250 C 604.475 444.688, 623.401 433.100, 634.246 426.500 L 653.965 414.500 654.233 334.569 L 654.500 254.638 679 239.335 C 692.475 230.919, 704.110 224.025, 704.855 224.016 C 705.600 224.007, 715.050 229.328, 725.855 235.841 C 736.660 242.353, 747.368 248.711, 749.651 249.969 C 752.676 251.636, 753.964 253.069, 754.401 255.253 C 754.730 256.901, 755 267.594, 755 279.014 C 755 297.360, 754.796 300.012, 753.250 301.781 C 752.288 302.882, 738.334 311.975, 722.242 321.988 C 706.150 332, 692.015 340.977, 690.830 341.936 L 688.677 343.680 704.426 370.296 L 720.176 396.912 736.338 406.442 C 745.227 411.684, 752.133 415.979, 751.684 415.986 C 751.236 415.994, 750.086 415.581, 749.130 415.070 C 748.174 414.558, 746.805 414.503, 746.086 414.947 C 745.199 415.495, 748.547 417.960, 756.513 422.627 C 762.966 426.407, 784.953 439.454, 805.373 451.620 L 842.500 473.740 843 369.890 L 843.500 266.040 860.497 255.487 C 869.846 249.683, 878.076 244.353, 878.787 243.642 C 879.703 242.725, 879.995 239.664, 879.790 233.125 L 879.500 223.900 862.918 234.337 C 847.104 244.291, 840.761 248, 839.550 248 C 839.247 248, 839 222.125, 839 190.500 C 839 158.875, 838.638 133, 838.196 133 C 837.753 133, 835.166 134.414, 832.446 136.143 C 829.726 137.871, 820.075 143.892, 811 149.522 C 801.925 155.153, 771.100 174.285, 742.500 192.039 C 713.900 209.793, 689.703 224.274, 688.728 224.220 C 687.754 224.165, 687.199 224.513, 687.495 224.991 C 687.791 225.470, 687.506 226.187, 686.862 226.585 C 686.164 227.017, 685.958 226.877, 686.352 226.240 C 686.715 225.652, 686.483 224.994, 685.836 224.779 C 685.190 224.563, 689.349 221.418, 695.080 217.789 C 724.274 199.305, 749.148 183.742, 793.839 156 C 843.531 125.153, 845.579 123.644, 843.294 119.562 C 842.556 118.243, 836.904 121.421, 809.454 138.588 M 693.668 166.839 C 687.251 179.448, 682.005 190.155, 682.011 190.632 C 682.016 191.109, 686.791 194.362, 692.620 197.861 C 701.489 203.183, 703.569 204.057, 705.360 203.214 C 709.311 201.354, 752.497 173.932, 752.788 173.098 C 753.033 172.395, 710.190 145.778, 706.592 144.397 C 705.778 144.084, 701.231 151.980, 693.668 166.839 M 809.500 158.143 C 791.408 169.350, 785.884 173.152, 786.221 174.164 C 786.381 174.643, 794.609 179.985, 804.506 186.033 L 822.500 197.031 822.781 184.958 C 822.936 178.318, 822.936 167.756, 822.781 161.488 L 822.500 150.091 809.500 158.143 M 667.993 164.505 C 660.591 169.118, 654.430 173.255, 654.300 173.696 C 654.071 174.480, 667.973 183.406, 668.483 182.803 C 669.618 181.464, 682.140 156.807, 681.839 156.505 C 681.625 156.291, 675.394 159.891, 667.993 164.505 M 611.250 199.273 L 585 215.449 585 246.725 C 585 263.926, 585.259 278, 585.575 278 C 585.891 278, 597.367 270.950, 611.077 262.333 L 636.004 246.665 648.502 222.279 C 655.376 208.867, 661 197.511, 661 197.044 C 661 196.150, 639.580 182.965, 638.264 183.049 C 637.844 183.075, 625.688 190.376, 611.250 199.273 M 744.803 198.277 C 731.219 206.650, 720.082 213.799, 720.053 214.164 C 720.024 214.529, 730.688 221.230, 743.750 229.054 C 756.813 236.879, 768.086 244.005, 768.802 244.890 C 769.774 246.091, 770.042 250.493, 769.858 262.222 C 769.722 270.869, 769.851 278.184, 770.144 278.477 C 770.437 278.771, 773.748 273.946, 777.501 267.755 C 781.253 261.565, 790.255 246.825, 797.503 235 C 804.752 223.175, 811.204 212.518, 811.841 211.317 C 812.924 209.274, 812.435 208.795, 804.249 203.882 C 799.437 200.993, 790.163 195.305, 783.640 191.241 C 777.117 187.177, 771.267 183.673, 770.640 183.453 C 770.013 183.233, 758.386 189.904, 744.803 198.277 M 668.759 215.250 C 665.867 220.887, 662.921 226.774, 662.214 228.331 C 660.689 231.690, 659.302 232.348, 676.246 221.664 L 688.993 213.627 682.246 209.339 C 678.536 206.981, 675.167 205.040, 674.759 205.026 C 674.352 205.012, 671.652 209.613, 668.759 215.250 M 689 222.969 C 689 223.501, 689.675 223.678, 690.500 223.362 C 691.325 223.045, 692 222.609, 692 222.393 C 692 222.177, 691.325 222, 690.500 222 C 689.675 222, 689 222.436, 689 222.969 M 809.405 244.250 C 802.381 255.938, 794.463 268.988, 791.810 273.250 C 789.157 277.512, 787.340 281, 787.773 281 C 788.206 281, 791.697 278.975, 795.530 276.501 C 799.364 274.027, 807.100 269.189, 812.722 265.751 L 822.944 259.500 822.972 241.250 C 822.987 231.213, 822.815 223, 822.589 223 C 822.362 223, 816.430 232.563, 809.405 244.250 M 681.441 226.555 C 679.577 228.049, 679.589 228.067, 681.750 227.020 C 682.987 226.420, 684 225.720, 684 225.465 C 684 224.700, 683.481 224.921, 681.441 226.555 M 839.300 274 C 839.300 277.025, 839.487 278.262, 839.716 276.750 C 839.945 275.238, 839.945 272.762, 839.716 271.250 C 839.487 269.738, 839.300 270.975, 839.300 274 M 607.489 284.073 L 585.500 298.002 584.908 349.251 C 584.583 377.438, 584.584 401.032, 584.911 401.683 C 585.237 402.334, 595.519 373.124, 607.759 336.773 C 619.999 300.422, 629.893 270.560, 629.746 270.413 C 629.599 270.266, 619.583 276.413, 607.489 284.073 M 801.415 292.267 C 789.819 299.545, 773.058 310, 764.169 315.500 C 755.280 321, 748.005 325.794, 748.004 326.152 C 748.002 326.511, 759.375 342.486, 773.277 361.652 C 787.179 380.819, 803.667 403.600, 809.916 412.277 C 816.166 420.955, 821.666 428.294, 822.139 428.586 C 822.617 428.881, 823 395.733, 823 354.059 C 823 312.777, 822.888 279.008, 822.750 279.017 C 822.612 279.026, 813.012 284.989, 801.415 292.267 M 614.321 364.525 C 601.587 402.736, 591.468 433.995, 591.834 433.989 C 592.200 433.984, 602.850 427.724, 615.500 420.080 L 638.500 406.180 638.759 352.701 C 638.901 323.287, 638.670 298.282, 638.246 297.135 C 637.678 295.601, 631.358 313.405, 614.321 364.525 M 721.555 340.947 C 715.536 344.643, 710.447 348.160, 710.246 348.762 C 710.045 349.364, 714.688 357.965, 720.563 367.874 L 731.245 385.893 740.372 391.125 C 745.393 394.002, 759.400 402.064, 771.500 409.040 C 797.799 424.202, 800.509 425.638, 799.407 423.833 C 797.976 421.486, 776.694 391.921, 760.929 370.377 C 752.527 358.895, 743.185 346.012, 740.170 341.750 C 737.154 337.488, 734.195 334.051, 733.593 334.113 C 732.992 334.175, 727.575 337.250, 721.555 340.947" stroke="none" fill="black" fill-rule="evenodd"/>
	<path fill-opacity="0.243" d="M 805.500 141.161 C 786.250 153.269, 769.966 163.399, 769.312 163.671 C 768.238 164.119, 755.887 156.876, 717.329 133.184 L 704.158 125.092 688.829 134.397 C 637.108 165.794, 626.591 172.145, 624.655 173.153 C 623.470 173.770, 624.975 171.867, 628 168.923 C 632.639 164.410, 632.952 163.902, 630 165.680 C 620.970 171.120, 579.649 196.183, 572.750 200.406 L 565 205.150 564.997 248.325 L 564.995 291.500 546.622 302.770 L 528.250 314.039 528.250 323.520 C 528.250 328.734, 528.415 333, 528.616 333 C 528.818 333, 535.174 329.101, 542.741 324.335 C 556.083 315.932, 567.770 309, 568.596 309 C 568.818 309, 569 344.100, 569 387 C 569 429.900, 569.366 465, 569.813 465 C 570.260 465, 573.523 463.242, 577.063 461.093 C 587.174 454.955, 641.847 421.512, 648.414 417.448 L 654.327 413.789 653.670 334.941 L 653.012 256.093 656.256 253.675 C 658.040 252.346, 669.737 244.870, 682.249 237.063 L 704.999 222.868 717.749 230.742 C 724.762 235.072, 736.013 241.866, 742.750 245.838 L 755 253.060 755 277.458 L 755 301.855 748.750 305.609 C 736.068 313.226, 691.457 341.323, 690.180 342.498 C 689.104 343.487, 690.782 346.935, 699.233 361.106 C 704.938 370.673, 711.938 382.550, 714.787 387.500 L 719.968 396.500 732.734 403.919 C 776.425 429.308, 799.133 443.077, 788.342 437.636 C 785.545 436.226, 785.209 436.218, 785.407 437.571 C 785.531 438.411, 787.177 440.047, 789.066 441.207 C 803.726 450.212, 840.619 472.300, 841.680 472.708 C 842.765 473.124, 842.965 462.925, 842.801 415.357 C 842.692 383.536, 842.447 360.762, 842.257 364.750 C 842.068 368.738, 841.503 372, 841.002 372 C 840.501 372, 839.934 375.038, 839.742 378.750 C 839.549 382.462, 839.210 363.900, 838.987 337.500 C 838.765 311.100, 838.532 285.314, 838.470 280.197 C 838.402 274.597, 838.814 270.269, 839.505 269.324 C 840.136 268.461, 849.393 262.277, 860.076 255.582 L 879.500 243.409 879.764 233.636 C 879.972 225.968, 879.757 224.030, 878.764 224.635 C 878.069 225.060, 870.750 229.654, 862.500 234.844 C 847.174 244.487, 839.543 249, 838.566 249 C 838.263 249, 837.900 222.979, 837.758 191.176 L 837.500 133.352 822 142.991 C 788.718 163.686, 742.267 192.540, 716.500 208.523 C 701.650 217.734, 683.200 229.195, 675.500 233.991 C 655.158 246.661, 609.125 275.218, 604.750 277.881 C 602.688 279.136, 601 279.938, 601 279.663 C 601 279.388, 602.599 278.175, 604.553 276.967 C 608.412 274.582, 608.632 273.085, 604.836 275.041 C 596.170 279.506, 615.441 267.084, 668.500 234.003 C 676.200 229.202, 695.550 217.064, 711.500 207.030 C 727.450 196.995, 754.675 179.975, 772 169.208 C 844.167 124.355, 842.468 125.486, 842.813 122.083 C 843.023 120.020, 842.692 119.024, 841.813 119.073 C 841.091 119.112, 824.750 129.052, 805.500 141.161 M 693.538 166.662 C 687.113 179.183, 681.777 189.829, 681.679 190.318 C 681.580 190.807, 686.450 194.273, 692.500 198.020 L 703.500 204.832 706.500 202.934 C 708.150 201.891, 719.495 194.841, 731.710 187.268 C 743.926 179.696, 753.928 173.275, 753.937 173 C 753.956 172.417, 708.103 144.646, 706.379 144.198 C 705.740 144.031, 699.962 154.140, 693.538 166.662 M 808.500 158.567 C 791.816 168.877, 785.057 173.322, 785.036 174 C 785.021 174.498, 823.320 198.163, 823.438 197.729 C 823.472 197.603, 823.275 186.794, 823 173.708 L 822.500 149.916 808.500 158.567 M 668.001 164.279 C 660.656 168.832, 654.506 172.995, 654.333 173.529 C 654.160 174.063, 657.223 176.477, 661.139 178.894 C 667.862 183.042, 668.322 183.181, 669.377 181.394 C 673.606 174.225, 682.756 156, 682.125 156 C 681.701 156, 675.345 159.725, 668.001 164.279 M 611 199.269 L 584.500 215.532 584.235 246.006 C 584.089 262.766, 584.177 277.019, 584.431 277.680 C 584.715 278.422, 594.349 272.971, 609.696 263.383 C 623.338 254.859, 635.025 247.349, 635.666 246.693 C 637.864 244.445, 661.183 197.919, 660.718 196.709 C 660.236 195.452, 639.940 182.997, 638.385 183.004 C 637.898 183.006, 625.575 190.325, 611 199.269 M 744.742 198.227 C 731.161 206.627, 720.187 213.949, 720.357 214.497 C 720.526 215.046, 731.540 222.019, 744.832 229.994 L 769 244.494 769 262.306 C 769 272.773, 769.376 279.886, 769.911 279.555 C 770.413 279.245, 774.313 273.256, 778.578 266.246 C 782.843 259.236, 792.371 243.654, 799.751 231.621 C 810.711 213.751, 812.926 209.521, 811.835 208.536 C 810.214 207.073, 772.984 184.315, 770.908 183.518 C 770.046 183.187, 759.203 189.282, 744.742 198.227 M 667.179 217.615 C 663.724 224.553, 661.123 230.456, 661.400 230.733 C 661.827 231.161, 689 214.168, 689 213.473 C 689 212.949, 675.323 205, 674.421 205 C 673.894 205, 670.635 210.677, 667.179 217.615 M 805 251.062 C 795.375 267.028, 787.346 280.531, 787.158 281.070 C 786.774 282.171, 790.219 280.148, 809.240 268.102 C 816.533 263.483, 822.829 259.208, 823.230 258.602 C 824.077 257.324, 823.922 221.992, 823.070 222.017 C 822.756 222.026, 814.625 235.097, 805 251.062 M 824.924 265.784 C 782.665 292.235, 779.757 294.152, 784.750 292.281 C 786.338 291.686, 786.361 291.800, 785 293.519 C 783.342 295.612, 784.235 295.128, 799.500 285.655 C 803.900 282.925, 816.500 275.105, 827.500 268.277 C 847.005 256.169, 853.084 251.979, 846 255.523 L 842.500 257.274 844.405 255.137 C 845.453 253.962, 846.094 253, 845.829 253 C 845.564 253, 836.157 258.753, 824.924 265.784 M 624.944 272.561 C 623.050 273.969, 613.850 279.893, 604.500 285.725 C 595.150 291.556, 586.712 296.999, 585.750 297.819 C 584.125 299.203, 584 303.014, 584 351.155 C 584 379.670, 584.351 403, 584.781 403 C 585.734 403, 587.403 398.887, 590.461 389 C 591.737 384.875, 601.156 356.610, 611.391 326.189 C 621.626 295.768, 630 270.681, 630 270.439 C 630 269.400, 628.154 270.174, 624.944 272.561 M 596.441 279.555 C 594.577 281.049, 594.589 281.067, 596.750 280.020 C 597.987 279.420, 599 278.720, 599 278.465 C 599 277.700, 598.481 277.921, 596.441 279.555 M 785.434 302.036 C 765.120 314.706, 748.354 325.494, 748.176 326.009 C 747.998 326.524, 758.554 341.695, 771.635 359.723 C 784.716 377.750, 800.612 399.715, 806.960 408.533 C 819.380 425.788, 822.563 430, 823.186 430 C 823.405 430, 823.583 396.025, 823.582 354.500 C 823.581 312.975, 823.307 279, 822.974 279 C 822.640 279, 805.747 289.366, 785.434 302.036 M 596.861 282.059 L 594.500 284.119 597.250 282.444 C 598.763 281.523, 600 280.597, 600 280.385 C 600 279.604, 599.165 280.050, 596.861 282.059 M 588.441 284.555 C 586.577 286.049, 586.589 286.067, 588.750 285.020 C 589.987 284.420, 591 283.720, 591 283.465 C 591 282.700, 590.481 282.921, 588.441 284.555 M 637.382 295.500 C 635.932 298.093, 590.703 434.048, 591.156 434.453 C 591.533 434.789, 636.742 407.658, 638.148 406.252 C 638.626 405.774, 638.901 380.209, 638.758 349.442 C 638.565 307.557, 638.219 294.003, 637.382 295.500 M 574.507 295.989 C 574.157 296.555, 574.558 296.723, 575.448 296.382 C 577.180 295.717, 577.497 295, 576.059 295 C 575.541 295, 574.843 295.445, 574.507 295.989 M 720.842 341.271 L 709.183 348.439 711.046 351.969 C 712.070 353.911, 717.091 362.418, 722.204 370.874 L 731.500 386.247 765.336 405.704 C 783.946 416.405, 799.422 424.911, 799.728 424.606 C 800.033 424.301, 798.490 421.677, 796.300 418.775 C 794.109 415.874, 779.351 395.613, 763.504 373.750 C 747.657 351.887, 734.198 334.023, 733.595 334.052 C 732.993 334.080, 727.254 337.329, 720.842 341.271" stroke="none" fill="black" fill-rule="evenodd"/>
	<path fill-opacity="0.587" d="M 805.524 141.502 C 785.737 153.876, 769.010 164, 768.352 164 C 767.694 164, 757.108 157.862, 744.828 150.361 C 710.924 129.650, 704.809 126, 704.016 126 C 703.356 126, 671.256 145.283, 650 158.449 C 645.325 161.344, 626.875 172.626, 609 183.520 C 591.125 194.414, 575.043 204.266, 573.262 205.413 L 570.025 207.500 570.012 247.631 L 570 287.763 566.750 290.232 C 564.962 291.590, 556.300 297.105, 547.500 302.487 C 538.700 307.869, 530.993 312.774, 530.374 313.386 C 528.795 314.949, 527.727 320, 528.976 320 C 530.165 320, 556.751 303.833, 586.500 285.019 C 598.050 277.714, 627.075 259.489, 651 244.518 C 674.925 229.547, 704.400 211.082, 716.500 203.483 C 728.600 195.885, 749.075 183.089, 762 175.047 C 843.893 124.096, 842.988 124.691, 842.994 121.750 C 842.997 120.237, 842.663 119.001, 842.250 119.002 C 841.837 119.004, 825.311 129.129, 805.524 141.502 M 821 143.895 C 803.742 154.748, 767.273 177.438, 708 214.202 C 686.275 227.677, 644.425 253.748, 615 272.137 C 585.575 290.527, 554.203 310.056, 545.285 315.536 C 529.749 325.083, 529.068 325.636, 529.035 328.750 C 529.016 330.538, 529.259 332, 529.574 332 C 529.890 332, 538.437 326.812, 548.567 320.472 C 558.696 314.131, 567.663 308.683, 568.492 308.365 C 569.828 307.852, 570 316.747, 570 386.359 L 570 464.933 573.750 462.731 C 575.813 461.521, 584.076 456.473, 592.113 451.515 C 600.150 446.557, 617.125 436.200, 629.835 428.500 L 652.945 414.500 652.972 334.823 L 653 255.147 677.826 239.609 C 691.481 231.063, 703.294 223.843, 704.076 223.564 C 704.859 223.286, 716.525 229.688, 730 237.791 L 754.500 252.524 754.500 277.390 L 754.500 302.255 725 320.745 C 708.775 330.914, 694.265 339.969, 692.756 340.867 C 691.247 341.765, 690.010 343.126, 690.006 343.892 C 690.001 345.115, 698.849 360.450, 715.440 387.971 L 720.546 396.442 742.523 409.230 C 768.826 424.534, 787.074 435.205, 815.944 452.160 L 837.500 464.819 838 366.792 L 838.500 268.765 858.668 256.132 C 876.033 245.255, 878.917 243.096, 879.425 240.590 C 879.749 238.990, 879.803 237.470, 879.546 237.213 C 879.288 236.955, 875.573 238.912, 871.289 241.561 C 850.084 254.673, 764.368 308.003, 756.417 313.031 C 746.642 319.213, 740.988 322.341, 740.524 321.824 C 738.383 319.438, 753.245 309.630, 846.356 251.979 C 878.463 232.100, 879.510 231.353, 879.823 228.094 C 880.236 223.805, 880.795 223.573, 861.272 235.791 C 852.598 241.220, 843.813 246.675, 841.750 247.913 L 838 250.163 838 192.082 C 838 160.137, 837.663 134.033, 837.250 134.074 C 836.837 134.114, 829.525 138.534, 821 143.895 M 704.673 144.750 C 703.845 146.146, 696.377 160.427, 688.477 175.723 C 684.152 184.096, 680.813 191.107, 681.057 191.302 C 681.301 191.497, 686.484 194.667, 692.575 198.346 L 703.649 205.035 728.819 189.268 C 742.663 180.595, 753.992 173.239, 753.995 172.920 C 754.002 172.129, 707.479 144, 706.165 144 C 705.589 144, 704.918 144.338, 704.673 144.750 M 806.500 159.615 C 797.150 165.460, 788.265 170.975, 786.756 171.871 C 785.247 172.767, 784.027 173.725, 784.044 174 C 784.095 174.821, 823.089 198.245, 823.582 197.751 C 823.832 197.501, 823.916 186.428, 823.768 173.143 L 823.500 148.988 806.500 159.615 M 667.915 164.016 C 659.987 168.977, 653.393 173.366, 653.263 173.768 C 652.870 174.985, 668.076 183.329, 668.954 182.379 C 670.485 180.722, 683.228 155.895, 682.779 155.445 C 682.531 155.198, 675.843 159.055, 667.915 164.016 M 612.755 197.940 C 598.595 206.634, 586.332 214.309, 585.505 214.996 C 584.224 216.059, 584 220.907, 584 247.622 C 584 264.880, 584.264 279, 584.588 279 C 585.384 279, 629.676 251.370, 633.710 248.357 C 636.017 246.634, 639.212 241.397, 645.075 229.730 C 649.561 220.803, 655.254 209.763, 657.727 205.195 C 660.199 200.627, 661.965 196.632, 661.651 196.318 C 661.337 196.004, 657.350 193.500, 652.790 190.754 C 648.231 188.008, 643.150 184.945, 641.500 183.947 L 638.500 182.134 612.755 197.940 M 743.800 198.317 C 730.215 206.668, 719.078 213.753, 719.050 214.062 C 719.023 214.370, 730.138 221.345, 743.750 229.562 L 768.500 244.500 768.773 262.250 C 768.923 272.012, 769.387 280, 769.804 280 C 770.221 280, 775.685 271.563, 781.946 261.250 C 788.207 250.938, 797.597 235.544, 802.813 227.042 C 813.164 210.169, 813.899 208.559, 811.646 207.694 C 810.812 207.374, 801.319 201.687, 790.551 195.056 C 779.782 188.425, 770.415 183.030, 769.735 183.067 C 769.056 183.104, 757.385 189.966, 743.800 198.317 M 673.153 205.744 C 668.361 214.853, 661.267 228.849, 660.727 230.262 C 660.102 231.897, 660.262 231.916, 662.944 230.529 C 664.534 229.707, 670.686 225.876, 676.615 222.017 C 682.544 218.158, 687.756 215, 688.197 215 C 691.247 215, 684.802 209.534, 676.987 205.493 C 674.326 204.117, 673.998 204.139, 673.153 205.744 M 821.041 224.250 C 820.249 225.488, 813.465 236.625, 805.965 249 C 798.465 261.375, 790.910 273.718, 789.175 276.428 C 787.441 279.138, 786.199 281.532, 786.414 281.748 C 787.012 282.346, 793.088 278.818, 809 268.633 L 823.500 259.353 823.772 240.677 C 823.922 230.404, 823.692 222, 823.263 222 C 822.833 222, 821.833 223.012, 821.041 224.250 M 627 270.729 C 626.175 271.043, 625.256 271.670, 624.958 272.123 C 624.660 272.575, 616.023 278.245, 605.765 284.723 C 595.507 291.200, 586.428 296.950, 585.590 297.500 C 584.260 298.373, 584.053 304.989, 583.965 349.500 C 583.910 377.550, 583.895 401.288, 583.933 402.250 C 584.009 404.242, 586 404.687, 586 402.711 C 586 402.003, 586.900 399.658, 588 397.500 C 589.100 395.342, 590 393.004, 590 392.303 C 590 391.603, 591.324 387.086, 592.943 382.265 C 621.878 296.087, 630 271.681, 630 270.916 C 630 269.909, 629.273 269.864, 627 270.729 M 785.282 301.820 C 765.361 314.314, 748.630 324.979, 748.100 325.518 C 747.478 326.153, 754.627 336.800, 768.319 355.626 C 779.968 371.645, 796.132 393.920, 804.239 405.126 C 812.345 416.332, 820.091 426.850, 821.453 428.500 L 823.928 431.500 823.964 355.250 C 823.993 294.871, 823.740 279.011, 822.750 279.052 C 822.063 279.080, 805.202 289.326, 785.282 301.820 M 636.878 295.750 C 633.390 304.693, 590.907 433.221, 591.175 434.020 C 591.354 434.554, 602.178 428.580, 615.230 420.745 L 638.960 406.500 638.980 349.750 C 638.991 318.538, 638.764 293, 638.475 293 C 638.187 293, 637.468 294.238, 636.878 295.750 M 730.500 335.045 C 728.850 336.162, 723.337 339.549, 718.250 342.571 C 713.163 345.593, 709.007 348.388, 709.015 348.783 C 709.039 349.866, 726.403 378.942, 729.658 383.347 C 731.888 386.366, 738.311 390.532, 759.500 402.702 C 795.960 423.643, 798.845 425.225, 799.856 424.837 C 800.756 424.490, 793.958 414.838, 762 371.088 C 743.907 346.318, 738.091 338.283, 735.702 334.750 C 734.227 332.568, 734.151 332.573, 730.500 335.045" stroke="none" fill="black" fill-rule="evenodd"/>
</svg>