<svg width="0" height="0"><symbol xmlns="http://www.w3.org/2000/svg" id="logo-cryptomus" fill="none" viewBox="0 0 234 48"><path fill="currentColor" d="M69.472 36.676c4.785 0 7.792-3.004 8.613-5.735l-3.896-1.57c-.581 2.048-2.29 3.448-4.614 3.448-2.905 0-5.16-2.185-5.16-5.53s2.255-5.53 5.126-5.53c2.324 0 3.964 1.4 4.545 3.482l3.896-1.536c-.82-2.799-3.828-5.803-8.51-5.803-5.433 0-9.398 4.096-9.398 9.421 0 5.325 4.033 9.353 9.398 9.353Zm15.283-16.384v-2.014h-4.1v17.988h4.34v-10.24c0-2.423 1.982-4.096 5.126-4.096v-4.062c-2.256 0-4.135.99-5.365 2.424Zm20.287-2.014-5.093 14.507-4.647-14.507h-4.478l6.357 17.988h1.367l-2.46 6.11h4.272l2.323-6.11 6.87-17.988h-4.511Zm16.732-.41c-2.563 0-4.647 1.024-6.049 2.765v-2.355h-4.032v24.098h4.34v-8.021c1.367 1.467 3.281 2.32 5.639 2.32 5.16 0 8.92-4.027 8.92-9.386 0-5.393-3.657-9.42-8.818-9.42Zm-.683 14.985c-3.11 0-5.229-2.287-5.229-5.564s2.119-5.564 5.229-5.564c2.973 0 5.16 2.355 5.16 5.564 0 3.174-2.187 5.564-5.16 5.564Zm20.226 3.413h2.837v-3.789h-1.982c-1.948 0-3.008-1.126-3.008-3.208v-7.27h4.853v-3.721h-4.716v-4.676h-4.238v2.833c0 1.228-.581 1.843-1.777 1.843h-1.64v3.72h3.144v7.749c0 3.96 2.221 6.52 6.527 6.52Zm13.632.41c5.605 0 9.604-4.028 9.604-9.387 0-5.393-3.999-9.42-9.604-9.42-5.639 0-9.603 4.027-9.603 9.42 0 5.359 3.964 9.387 9.603 9.387Zm.034-3.857c-3.144 0-5.297-2.321-5.297-5.53 0-3.243 2.153-5.53 5.297-5.53 3.11 0 5.195 2.287 5.195 5.496 0 3.243-2.119 5.564-5.195 5.564Zm34.004-14.951c-3.041 0-5.092 1.263-6.083 2.936-1.025-1.878-2.837-2.936-5.707-2.936-2.427 0-4.306 1.024-5.434 2.39v-1.98h-4.101v17.954h4.34V25.343c.034-1.706 1.401-3.584 3.862-3.618 2.426 0 3.759 1.81 3.759 4.165v10.342h4.34V25.343c.035-1.672 1.367-3.584 3.862-3.618 2.427 0 3.725 1.843 3.725 4.165v10.342h4.341V25.105c0-4.062-2.427-7.237-6.904-7.237Zm22.846.41v10.888c0 1.98-1.572 3.619-3.999 3.653-2.426 0-3.964-1.605-3.964-3.926V18.278h-4.34v11.161c0 4.165 2.46 7.237 7.04 7.237 2.324 0 4.272-.99 5.536-2.39v1.98h4.067V18.278h-4.34Zm14.717 18.398c4.511 0 7.45-2.117 7.45-5.7 0-6.588-9.877-4.711-9.877-7.988 0-1.092.855-1.775 2.461-1.775 1.504 0 2.563.649 3.042 2.014l3.793-1.468c-.752-2.457-3.281-3.89-6.767-3.89-4.237 0-6.972 2.047-6.972 5.324 0 6.178 9.877 4.54 9.877 8.09 0 1.263-1.093 1.98-2.836 1.98-2.188 0-3.589-.99-4.101-2.663l-3.794 1.468c.991 3.038 3.828 4.608 7.724 4.608ZM43.535 11.345 25.277.817a2.688 2.688 0 0 0-2.675 0L4.344 11.345a2.676 2.676 0 0 0-1.34 2.317v21.055c0 .951.513 1.837 1.34 2.317l18.258 10.528a2.67 2.67 0 0 0 1.34.356c.471 0 .933-.125 1.34-.356L43.54 37.034a2.676 2.676 0 0 0 1.34-2.316V13.662c0-.95-.513-1.837-1.34-2.317h-.005ZM24.353 22.884a.828.828 0 0 1-.827 0L5.776 12.65l17.75-10.23a.85.85 0 0 1 .827 0l17.75 10.232-17.75 10.233Zm-1.751 1.596c.13.074.268.139.416.19v20.99L5.268 35.433a.831.831 0 0 1-.416-.715v-20.47l17.75 10.232Z"/></symbol><symbol xmlns="http://www.w3.org/2000/svg" id="logo-text" viewBox="0 0 132 22"><path d="M7.133 17.642c3.631 0 5.913-2.297 6.536-4.385l-2.957-1.2c-.44 1.566-1.738 2.636-3.501 2.636-2.205 0-3.917-1.67-3.917-4.228s1.712-4.228 3.89-4.228c1.764 0 3.01 1.07 3.45 2.662l2.957-1.174c-.622-2.14-2.905-4.437-6.458-4.437C3.009 3.288 0 6.42 0 10.491s3.06 7.15 7.133 7.15ZM18.732 5.115v-1.54h-3.113V17.33h3.294V9.5c0-1.853 1.505-3.131 3.89-3.131V3.262c-1.71 0-3.137.757-4.071 1.853Zm15.396-1.54-3.865 11.092-3.527-11.092h-3.398l4.824 13.754H29.2L27.332 22h3.242l1.764-4.671 5.213-13.754h-3.423Zm12.699-.313c-1.945 0-3.527.783-4.59 2.114v-1.8h-3.061V22h3.294v-6.133c1.037 1.122 2.49 1.775 4.28 1.775 3.916 0 6.769-3.08 6.769-7.177 0-4.123-2.775-7.203-6.692-7.203Zm-.519 11.457c-2.36 0-3.968-1.749-3.968-4.254 0-2.505 1.608-4.254 3.968-4.254 2.257 0 3.917 1.8 3.917 4.254 0 2.427-1.66 4.254-3.917 4.254Zm15.351 2.61h2.153v-2.897h-1.505c-1.478 0-2.282-.861-2.282-2.453v-5.56h3.683V3.576h-3.58V0h-3.216v2.166c0 .94-.44 1.41-1.348 1.41h-1.245V6.42h2.386v5.924c0 3.027 1.686 4.985 4.954 4.985Zm10.346.313c4.254 0 7.288-3.08 7.288-7.177 0-4.123-3.034-7.203-7.288-7.203-4.28 0-7.288 3.08-7.288 7.203 0 4.097 3.008 7.177 7.288 7.177Zm.026-2.95c-2.386 0-4.02-1.774-4.02-4.227 0-2.48 1.634-4.228 4.02-4.228 2.36 0 3.942 1.749 3.942 4.202 0 2.48-1.608 4.254-3.942 4.254Zm25.807-11.43c-2.309 0-3.865.966-4.617 2.245-.778-1.436-2.153-2.245-4.332-2.245-1.841 0-3.268.783-4.124 1.827V3.575h-3.112v13.727h3.294V8.977c.026-1.304 1.063-2.74 2.93-2.766 1.842 0 2.854 1.383 2.854 3.184v7.907h3.294V8.977c.026-1.278 1.037-2.74 2.93-2.766 1.843 0 2.828 1.41 2.828 3.184v7.907h3.294V8.795c0-3.106-1.841-5.533-5.24-5.533Zm17.338.313V11.9c0 1.514-1.193 2.767-3.034 2.793-1.842 0-3.009-1.227-3.009-3.001V3.575h-3.294v8.534c0 3.184 1.867 5.533 5.343 5.533 1.764 0 3.242-.757 4.202-1.827v1.514h3.086V3.575h-3.294Zm11.17 14.067c3.423 0 5.654-1.618 5.654-4.358 0-5.037-7.496-3.602-7.496-6.107 0-.835.649-1.357 1.868-1.357 1.141 0 1.945.496 2.308 1.54l2.879-1.123c-.571-1.879-2.49-2.975-5.136-2.975-3.216 0-5.291 1.566-5.291 4.071 0 4.724 7.496 3.471 7.496 6.185 0 .966-.83 1.514-2.153 1.514-1.66 0-2.723-.757-3.112-2.036l-2.879 1.123c.752 2.322 2.905 3.523 5.862 3.523Z"/></symbol><symbol xmlns="http://www.w3.org/2000/svg" id="logo" viewBox="0 0 32 36"><path d="M30.611 8.507 16.935.61a2.011 2.011 0 0 0-2.005 0L1.254 8.507A2.008 2.008 0 0 0 .25 10.245v15.791c0 .713.384 1.378 1.004 1.738L14.93 35.67a2.034 2.034 0 0 0 2.008 0l13.677-7.896a2.008 2.008 0 0 0 1.004-1.738V10.245c0-.713-.385-1.378-1.004-1.738h-.004ZM16.242 17.16a.62.62 0 0 1-.62 0L2.328 9.487l13.296-7.675a.636.636 0 0 1 .62 0l13.295 7.675-13.296 7.674Zm-1.312 1.197c.097.056.201.104.312.142v15.743l-13.296-7.67a.624.624 0 0 1-.311-.537V10.684l13.295 7.674Z"/></symbol></svg>