<svg xmlns="http://www.w3.org/2000/svg" width="512" height="512" viewBox="0 0 512 512" version="1.1">
  <!--
    Favicon / app icon for reiwa.
    Self-contained: a rounded dark tile + white origami-"R" glyph so the mark
    stays visible on ANY browser-tab background (light or dark). The glyph
    geometry is the canonical mark from web/src/components/ui/reiwa-logo.tsx
    (tight bounds 524 114 / 360 x 364), scaled and centred into the 512 tile.
    The previous file was the raw 1408x768 artboard with black low-opacity
    fills — invisible on the dark tab and squished by the non-square canvas.
  -->
  <rect width="512" height="512" rx="104" fill="#0a0a0a"/>
  <g transform="translate(-362.92 -4.22) scale(0.8791)" fill="#ffffff" fill-rule="evenodd">
    <path d="M 805.524 141.502 C 785.737 153.876, 769.010 164, 768.352 164 C 767.694 164, 757.108 157.862, 744.828 150.361 C 710.924 129.650, 704.809 126, 704.016 126 C 703.356 126, 671.256 145.283, 650 158.449 C 645.325 161.344, 626.875 172.626, 609 183.520 C 591.125 194.414, 575.043 204.266, 573.262 205.413 L 570.025 207.500 570.012 247.631 L 570 287.763 566.750 290.232 C 564.962 291.590, 556.300 297.105, 547.500 302.487 C 538.700 307.869, 530.993 312.774, 530.374 313.386 C 528.795 314.949, 527.727 320, 528.976 320 C 530.165 320, 556.751 303.833, 586.500 285.019 C 598.050 277.714, 627.075 259.489, 651 244.518 C 674.925 229.547, 704.400 211.082, 716.500 203.483 C 728.600 195.885, 749.075 183.089, 762 175.047 C 843.893 124.096, 842.988 124.691, 842.994 121.750 C 842.997 120.237, 842.663 119.001, 842.250 119.002 C 841.837 119.004, 825.311 129.129, 805.524 141.502 M 821 143.895 C 803.742 154.748, 767.273 177.438, 708 214.202 C 686.275 227.677, 644.425 253.748, 615 272.137 C 585.575 290.527, 554.203 310.056, 545.285 315.536 C 529.749 325.083, 529.068 325.636, 529.035 328.750 C 529.016 330.538, 529.259 332, 529.574 332 C 529.890 332, 538.437 326.812, 548.567 320.472 C 558.696 314.131, 567.663 308.683, 568.492 308.365 C 569.828 307.852, 570 316.747, 570 386.359 L 570 464.933 573.750 462.731 C 575.813 461.521, 584.076 456.473, 592.113 451.515 C 600.150 446.557, 617.125 436.200, 629.835 428.500 L 652.945 414.500 652.972 334.823 L 653 255.147 677.826 239.609 C 691.481 231.063, 703.294 223.843, 704.076 223.564 C 704.859 223.286, 716.525 229.688, 730 237.791 L 754.500 252.524 754.500 277.390 L 754.500 302.255 725 320.745 C 708.775 330.914, 694.265 339.969, 692.756 340.867 C 691.247 341.765, 690.010 343.126, 690.006 343.892 C 690.001 345.115, 698.849 360.450, 715.440 387.971 L 720.546 396.442 742.523 409.230 C 768.826 424.534, 787.074 435.205, 815.944 452.160 L 837.500 464.819 838 366.792 L 838.500 268.765 858.668 256.132 C 876.033 245.255, 878.917 243.096, 879.425 240.590 C 879.749 238.990, 879.803 237.470, 879.546 237.213 C 879.288 236.955, 875.573 238.912, 871.289 241.561 C 850.084 254.673, 764.368 308.003, 756.417 313.031 C 746.642 319.213, 740.988 322.341, 740.524 321.824 C 738.383 319.438, 753.245 309.630, 846.356 251.979 C 878.463 232.100, 879.510 231.353, 879.823 228.094 C 880.236 223.805, 880.795 223.573, 861.272 235.791 C 852.598 241.220, 843.813 246.675, 841.750 247.913 L 838 250.163 838 192.082 C 838 160.137, 837.663 134.033, 837.250 134.074 C 836.837 134.114, 829.525 138.534, 821 143.895 M 704.673 144.750 C 703.845 146.146, 696.377 160.427, 688.477 175.723 C 684.152 184.096, 680.813 191.107, 681.057 191.302 C 681.301 191.497, 686.484 194.667, 692.575 198.346 L 703.649 205.035 728.819 189.268 C 742.663 180.595, 753.992 173.239, 753.995 172.920 C 754.002 172.129, 707.479 144, 706.165 144 C 705.589 144, 704.918 144.338, 704.673 144.750 M 806.500 159.615 C 797.150 165.460, 788.265 170.975, 786.756 171.871 C 785.247 172.767, 784.027 173.725, 784.044 174 C 784.095 174.821, 823.089 198.245, 823.582 197.751 C 823.832 197.501, 823.916 186.428, 823.768 173.143 L 823.500 148.988 806.500 159.615 M 667.915 164.016 C 659.987 168.977, 653.393 173.366, 653.263 173.768 C 652.870 174.985, 668.076 183.329, 668.954 182.379 C 670.485 180.722, 683.228 155.895, 682.779 155.445 C 682.531 155.198, 675.843 159.055, 667.915 164.016 M 612.755 197.940 C 598.595 206.634, 586.332 214.309, 585.505 214.996 C 584.224 216.059, 584 220.907, 584 247.622 C 584 264.880, 584.264 279, 584.588 279 C 585.384 279, 629.676 251.370, 633.710 248.357 C 636.017 246.634, 639.212 241.397, 645.075 229.730 C 649.561 220.803, 655.254 209.763, 657.727 205.195 C 660.199 200.627, 661.965 196.632, 661.651 196.318 C 661.337 196.004, 657.350 193.500, 652.790 190.754 C 648.231 188.008, 643.150 184.945, 641.500 183.947 L 638.500 182.134 612.755 197.940 M 743.800 198.317 C 730.215 206.668, 719.078 213.753, 719.050 214.062 C 719.023 214.370, 730.138 221.345, 743.750 229.562 L 768.500 244.500 768.773 262.250 C 768.923 272.012, 769.387 280, 769.804 280 C 770.221 280, 775.685 271.563, 781.946 261.250 C 788.207 250.938, 797.597 235.544, 802.813 227.042 C 813.164 210.169, 813.899 208.559, 811.646 207.694 C 810.812 207.374, 801.319 201.687, 790.551 195.056 C 779.782 188.425, 770.415 183.030, 769.735 183.067 C 769.056 183.104, 757.385 189.966, 743.800 198.317 M 673.153 205.744 C 668.361 214.853, 661.267 228.849, 660.727 230.262 C 660.102 231.897, 660.262 231.916, 662.944 230.529 C 664.534 229.707, 670.686 225.876, 676.615 222.017 C 682.544 218.158, 687.756 215, 688.197 215 C 691.247 215, 684.802 209.534, 676.987 205.493 C 674.326 204.117, 673.998 204.139, 673.153 205.744 M 821.041 224.250 C 820.249 225.488, 813.465 236.625, 805.965 249 C 798.465 261.375, 790.910 273.718, 789.175 276.428 C 787.441 279.138, 786.199 281.532, 786.414 281.748 C 787.012 282.346, 793.088 278.818, 809 268.633 L 823.500 259.353 823.772 240.677 C 823.922 230.404, 823.692 222, 823.263 222 C 822.833 222, 821.833 223.012, 821.041 224.250 M 627 270.729 C 626.175 271.043, 625.256 271.670, 624.958 272.123 C 624.660 272.575, 616.023 278.245, 605.765 284.723 C 595.507 291.200, 586.428 296.950, 585.590 297.500 C 584.260 298.373, 584.053 304.989, 583.965 349.500 C 583.910 377.550, 583.895 401.288, 583.933 402.250 C 584.009 404.242, 586 404.687, 586 402.711 C 586 402.003, 586.900 399.658, 588 397.500 C 589.100 395.342, 590 393.004, 590 392.303 C 590 391.603, 591.324 387.086, 592.943 382.265 C 621.878 296.087, 630 271.681, 630 270.916 C 630 269.909, 629.273 269.864, 627 270.729 M 785.282 301.820 C 765.361 314.314, 748.630 324.979, 748.100 325.518 C 747.478 326.153, 754.627 336.800, 768.319 355.626 C 779.968 371.645, 796.132 393.920, 804.239 405.126 C 812.345 416.332, 820.091 426.850, 821.453 428.500 L 823.928 431.500 823.964 355.250 C 823.993 294.871, 823.740 279.011, 822.750 279.052 C 822.063 279.080, 805.202 289.326, 785.282 301.820 M 636.878 295.750 C 633.390 304.693, 590.907 433.221, 591.175 434.020 C 591.354 434.554, 602.178 428.580, 615.230 420.745 L 638.960 406.500 638.980 349.750 C 638.991 318.538, 638.764 293, 638.475 293 C 638.187 293, 637.468 294.238, 636.878 295.750 M 730.500 335.045 C 728.850 336.162, 723.337 339.549, 718.250 342.571 C 713.163 345.593, 709.007 348.388, 709.015 348.783 C 709.039 349.866, 726.403 378.942, 729.658 383.347 C 731.888 386.366, 738.311 390.532, 759.500 402.702 C 795.960 423.643, 798.845 425.225, 799.856 424.837 C 800.756 424.490, 793.958 414.838, 762 371.088 C 743.907 346.318, 738.091 338.283, 735.702 334.750 C 734.227 332.568, 734.151 332.573, 730.500 335.045"/>
  </g>
</svg>
